<svg width="108" height="107" viewBox="0 0 108 107" fill="none" xmlns="http://www.w3.org/2000/svg">
<g clip-path="url(#clip0_4_1599)">
<path d="M41.4492 53.6297L69.759 6.19263L18.6846 62.1308H46.2433L26.7797 107L66.2539 53.6297H41.4492Z" fill="#262626"/>
<path d="M63.2034 44.6096L79.1341 0L49.489 49.6898H75.4713L34.1147 105.591L91.0032 44.6096H63.2034Z" fill="#262626"/>
<path d="M36.9798 65.9688H23.2098C23.2113 67.5554 23.76 69.0931 24.7633 70.3225C25.7667 71.5518 27.1633 72.3978 28.7178 72.7177C27.8926 77.1768 25.5002 82.3775 21.6427 85.6964C20.3519 86.8981 18.8079 87.795 17.1245 88.3213C15.4411 88.8475 13.6611 88.9896 11.9155 88.7371C9.82126 88.4976 7.84273 87.6513 6.22326 86.3024C4.60379 84.9534 3.41407 83.1607 2.80041 81.1446C-0.55633 71.0304 7.50169 58.163 16.1625 49.5044C23.5807 42.088 27.0302 34.8848 26.3069 28.1822C25.9069 24.7746 24.466 21.5731 22.1805 19.0137C22.9743 17.8044 23.3267 16.3583 23.178 14.9194C23.0294 13.4805 22.3888 12.1369 21.3645 11.1153L19.9921 12.4966L15.5598 8.06529C15.412 7.9181 15.2119 7.83545 15.0034 7.83545C14.7948 7.83545 14.5948 7.9181 14.447 8.06529L14.2986 8.21359C14.1514 8.36129 14.0687 8.56131 14.0687 8.76983C14.0687 8.97834 14.1514 9.17836 14.2986 9.32606L18.7218 13.813L15.1146 17.4285L10.6823 12.9786C10.5345 12.8314 10.3344 12.7488 10.1259 12.7488C9.9173 12.7488 9.71726 12.8314 9.56953 12.9786L9.42113 13.127C9.27391 13.2747 9.19129 13.4747 9.19129 13.6832C9.19129 13.8917 9.27391 14.0917 9.42113 14.2394L13.8535 18.6707L12.4719 20.052C13.5519 21.1275 14.9855 21.7747 16.5066 21.8736C18.0277 21.9724 19.533 21.5163 20.7432 20.5897C22.6595 22.8029 23.8732 25.5364 24.2298 28.4418C24.8881 34.4491 21.6705 41.0404 14.6788 48.0304C-2.79107 65.496 -0.343061 78.2985 0.825308 81.8027C1.56271 84.1894 2.97331 86.3126 4.88786 87.9175C6.80242 89.5225 9.1396 90.5409 11.6188 90.8508C12.2818 90.9505 12.9513 91.0001 13.6217 90.9991C17.1016 90.9559 20.4444 89.6362 23.0151 87.2909C27.3083 83.5827 29.9511 77.7608 30.8134 72.8196C32.5054 72.639 34.0709 71.8396 35.2092 70.575C36.3474 69.3105 36.978 67.67 36.9798 65.9688Z" fill="#262626"/>
<path d="M94.1463 88.2365L95.528 86.8552C94.4501 85.7767 93.0169 85.1265 91.4952 85.0259C89.9736 84.9252 88.4671 85.381 87.2566 86.3083C85.335 84.0985 84.1206 81.3633 83.7701 78.4562C83.1117 72.4489 86.3201 65.8576 93.3117 58.8676C110.791 41.402 108.343 28.6088 107.175 25.0952C106.43 22.7172 105.016 20.6039 103.102 19.0076C101.188 17.4114 98.8546 16.3998 96.381 16.0936C94.3385 15.8062 92.2577 15.9738 90.2875 16.5844C88.3173 17.195 86.5066 18.2335 84.9848 19.6257C80.6915 23.3338 78.0487 29.165 77.1771 34.1062C75.4876 34.2868 73.9244 35.0852 72.7879 36.348C71.6514 37.6109 71.0218 39.249 71.02 40.9478H84.7808C84.7797 39.3624 84.2323 37.8258 83.2308 36.5966C82.2293 35.3673 80.8348 34.5206 79.282 34.1989C80.1073 29.7398 82.4997 24.539 86.3479 21.2202C87.6408 20.0189 89.1864 19.1222 90.8712 18.596C92.556 18.0698 94.3373 17.9275 96.0843 18.1794C98.178 18.4213 100.155 19.2697 101.773 20.6203C103.391 21.9709 104.579 23.7647 105.19 25.7812C108.556 35.8953 100.498 48.7535 91.8374 57.4122C84.3728 64.8285 80.9604 72.0317 81.6929 78.7343C82.0949 82.1395 83.5319 85.3396 85.81 87.9028C85.0203 89.1119 84.6704 90.5556 84.8189 91.992C84.9675 93.4284 85.6055 94.7701 86.6261 95.792L88.0077 94.42L92.4401 98.842C92.5878 98.9892 92.7879 99.0718 92.9965 99.0718C93.205 99.0718 93.4051 98.9892 93.5529 98.842L93.7012 98.6936C93.8484 98.546 93.9311 98.3459 93.9311 98.1374C93.9311 97.9289 93.8484 97.7289 93.7012 97.5812L89.2688 93.1499L92.8852 89.5437L97.3083 93.9657C97.4576 94.1134 97.6592 94.1964 97.8693 94.1964C98.0794 94.1964 98.281 94.1134 98.4303 93.9657L98.5787 93.8174C98.7259 93.6697 98.8086 93.4697 98.8086 93.2612C98.8086 93.0526 98.7259 92.8526 98.5787 92.7049L94.1463 88.2365Z" fill="#262626"/>
</g>
<defs>
<clipPath id="clip0_4_1599">
<rect width="108" height="107" fill="white"/>
</clipPath>
</defs>
</svg>
