<svg width="54" height="54" viewBox="0 0 54 54" fill="none" xmlns="http://www.w3.org/2000/svg">
<rect x="0.5" y="0.5" width="53" height="53" rx="26.5" stroke="#2C2C2C"/>
<path d="M23.37 14.38H20.5V15.99H23.37V14.38Z" fill="#2C2C2C"/>
<path d="M36.9301 14.38H34.0601V15.99H36.9301V14.38Z" fill="#2C2C2C"/>
<path d="M40.21 34.88H17.3V36.49H40.21V34.88Z" fill="#2C2C2C"/>
<path d="M38.89 21.37H18.55V33.56H38.89V21.37Z" fill="#2C2C2C"/>
<path d="M37.5401 18.68V17.25H33.4501V18.68H23.98V17.25H19.88V18.68H17.3V20.28H40.21V18.68H37.5401Z" fill="#2C2C2C"/>
<path d="M24.99 31.4H20.04V26.45H18.4V31.4H13.46V33.04H18.4V37.98H20.04V33.04H24.99V31.4Z" fill="white"/>
<path d="M19.9999 26.45V31.4H24.9999V33H19.9999V38H18.3999V33H13.4599V31.4H18.3999V26.45H19.9999ZM21.6399 24.82H16.7599V29.76H11.8199V34.67H16.7599V39.62H21.6799V34.67H26.6199V29.76H21.6799V24.82H21.6399Z" fill="#2C2C2C"/>
</svg>
