<svg id="Capa_1" data-name="Capa 1" xmlns="http://www.w3.org/2000/svg" viewBox="0 0 54 54"><defs><style>.cls-1{fill:#2c2c2c;}.cls-2{fill:#fff;}</style></defs><rect class="cls-1" x="20.5" y="14.38" width="2.87" height="1.61"/><rect class="cls-1" x="34.06" y="14.38" width="2.87" height="1.61"/><rect class="cls-1" x="17.3" y="34.88" width="22.91" height="1.61"/><rect class="cls-1" x="18.55" y="21.37" width="20.34" height="12.19"/><polygon class="cls-1" points="37.54 18.68 37.54 17.25 33.45 17.25 33.45 18.68 23.98 18.68 23.98 17.25 19.88 17.25 19.88 18.68 17.3 18.68 17.3 20.28 40.21 20.28 40.21 18.68 37.54 18.68"/><polygon class="cls-2" points="24.99 31.4 20.04 31.4 20.04 26.45 18.4 26.45 18.4 31.4 13.46 31.4 13.46 33.04 18.4 33.04 18.4 37.98 20.04 37.98 20.04 33.04 24.99 33.04 24.99 31.4"/><path class="cls-1" d="M20,26.45V31.4H25V33H20V38H18.4V33H13.46V31.4H18.4V26.45H20m1.64-1.63H16.76v4.94H11.82v4.91h4.94v4.95h4.92V34.67h4.94V29.76H21.68V24.82Z"/><path class="cls-1" d="M27,1.23A25.77,25.77,0,1,1,1.23,27,25.8,25.8,0,0,1,27,1.23m0-.81A26.58,26.58,0,1,0,53.58,27,26.58,26.58,0,0,0,27,.42Z"/></svg>