<svg width="54" height="54" viewBox="0 0 54 54" fill="none" xmlns="http://www.w3.org/2000/svg">
<mask id="mask0_6_1872" style="mask-type:alpha" maskUnits="userSpaceOnUse" x="13" y="14" width="28" height="28">
<rect x="13" y="42" width="28" height="28" transform="rotate(-90 13 42)" fill="#D9D9D9"/>
</mask>
<g mask="url(#mask0_6_1872)">
<path d="M26.9999 32.8584L35.5749 24.2834C35.8666 23.9918 36.2068 23.8508 36.5957 23.8605C36.9846 23.8702 37.3249 24.0209 37.6166 24.3126C37.9082 24.6043 38.0541 24.9445 38.0541 25.3334C38.0541 25.7223 37.9082 26.0626 37.6166 26.3543L28.6624 35.3376C28.4291 35.5709 28.1666 35.7459 27.8749 35.8626C27.5832 35.9793 27.2916 36.0376 26.9999 36.0376C26.7082 36.0376 26.4166 35.9793 26.1249 35.8626C25.8332 35.7459 25.5707 35.5709 25.3374 35.3376L16.3541 26.3543C16.0624 26.0626 15.9214 25.7175 15.9311 25.3188C15.9409 24.9202 16.0916 24.5751 16.3832 24.2834C16.6749 23.9918 17.0152 23.8459 17.4041 23.8459C17.7929 23.8459 18.1332 23.9918 18.4249 24.2834L26.9999 32.8584Z" fill="#1C1B1F"/>
</g>
<circle cx="27" cy="27" r="26.5" stroke="#2C2C2C"/>
</svg>
