<svg width="54" height="54" viewBox="0 0 54 54" fill="none" xmlns="http://www.w3.org/2000/svg">
<mask id="mask0_6_1865" style="mask-type:alpha" maskUnits="userSpaceOnUse" x="14" y="13" width="28" height="28">
<rect width="28" height="28" transform="matrix(-1 0 0 1 42 13)" fill="#D9D9D9"/>
</mask>
<g mask="url(#mask0_6_1865)">
<path d="M30.8579 26.9999L22.2829 35.5749C21.9913 35.8666 21.8503 36.2068 21.86 36.5957C21.8697 36.9846 22.0204 37.3249 22.3121 37.6166C22.6038 37.9082 22.9441 38.0541 23.3329 38.0541C23.7218 38.0541 24.0621 37.9082 24.3538 37.6166L33.3371 28.6624C33.5704 28.4291 33.7454 28.1666 33.8621 27.8749C33.9788 27.5832 34.0371 27.2916 34.0371 26.9999C34.0371 26.7082 33.9788 26.4166 33.8621 26.1249C33.7454 25.8332 33.5704 25.5707 33.3371 25.3374L24.3538 16.3541C24.0621 16.0624 23.717 15.9214 23.3184 15.9311C22.9197 15.9409 22.5746 16.0916 22.2829 16.3832C21.9913 16.6749 21.8454 17.0152 21.8454 17.4041C21.8454 17.7929 21.9913 18.1332 22.2829 18.4249L30.8579 26.9999Z" fill="#1C1B1F"/>
</g>
<circle cx="27" cy="27" r="26.5" stroke="#2C2C2C"/>
</svg>
