<svg width="54" height="54" viewBox="0 0 54 54" fill="none" xmlns="http://www.w3.org/2000/svg">
<mask id="mask0_367_795" style="mask-type:alpha" maskUnits="userSpaceOnUse" x="13" y="13" width="28" height="28">
<rect x="13" y="13" width="28" height="28" fill="#D9D9D9"/>
</mask>
<g mask="url(#mask0_367_795)">
<path d="M20 35.1666V35.7499C20 36.236 19.8299 36.6492 19.4896 36.9895C19.1493 37.3298 18.7361 37.4999 18.25 37.4999C17.7639 37.4999 17.3507 37.3298 17.0104 36.9895C16.6701 36.6492 16.5 36.236 16.5 35.7499V27.4083C16.5 27.2721 16.5097 27.136 16.5292 26.9999C16.5486 26.8638 16.5778 26.7374 16.6167 26.6208L18.8042 20.4083C18.9597 19.9416 19.2417 19.5624 19.65 19.2708C20.0583 18.9791 20.5153 18.8333 21.0208 18.8333H32.9792C33.4847 18.8333 33.9417 18.9791 34.35 19.2708C34.7583 19.5624 35.0403 19.9416 35.1958 20.4083L37.3833 26.6208C37.4222 26.7374 37.4514 26.8638 37.4708 26.9999C37.4903 27.136 37.5 27.2721 37.5 27.4083V35.7499C37.5 36.236 37.3299 36.6492 36.9896 36.9895C36.6493 37.3298 36.2361 37.4999 35.75 37.4999C35.2639 37.4999 34.8507 37.3298 34.5104 36.9895C34.1701 36.6492 34 36.236 34 35.7499V35.1666H20ZM19.7667 24.6666H34.2333L33.0083 21.1666H20.9917L19.7667 24.6666ZM21.75 31.6666C22.2361 31.6666 22.6493 31.4964 22.9896 31.1562C23.3299 30.8159 23.5 30.4027 23.5 29.9166C23.5 29.4305 23.3299 29.0173 22.9896 28.677C22.6493 28.3367 22.2361 28.1666 21.75 28.1666C21.2639 28.1666 20.8507 28.3367 20.5104 28.677C20.1701 29.0173 20 29.4305 20 29.9166C20 30.4027 20.1701 30.8159 20.5104 31.1562C20.8507 31.4964 21.2639 31.6666 21.75 31.6666ZM32.25 31.6666C32.7361 31.6666 33.1493 31.4964 33.4896 31.1562C33.8299 30.8159 34 30.4027 34 29.9166C34 29.4305 33.8299 29.0173 33.4896 28.677C33.1493 28.3367 32.7361 28.1666 32.25 28.1666C31.7639 28.1666 31.3507 28.3367 31.0104 28.677C30.6701 29.0173 30.5 29.4305 30.5 29.9166C30.5 30.4027 30.6701 30.8159 31.0104 31.1562C31.3507 31.4964 31.7639 31.6666 32.25 31.6666ZM18.8333 32.8333H35.1667V26.9999H18.8333V32.8333Z" fill="#1C1B1F"/>
</g>
<circle cx="27" cy="27" r="26.5" stroke="#2C2C2C"/>
</svg>
