<svg width="54" height="54" viewBox="0 0 54 54" fill="none" xmlns="http://www.w3.org/2000/svg">
<mask id="mask0_10_2579" style="mask-type:alpha" maskUnits="userSpaceOnUse" x="13" y="13" width="28" height="28">
<rect x="13" y="13" width="28" height="28" fill="#D9D9D9"/>
</mask>
<g mask="url(#mask0_10_2579)">
<path d="M27 27C26.6694 27 26.3924 26.8882 26.1687 26.6646C25.9451 26.441 25.8333 26.1639 25.8333 25.8333V16.5C25.8333 16.1694 25.9451 15.8924 26.1687 15.6687C26.3924 15.4451 26.6694 15.3333 27 15.3333C27.3306 15.3333 27.6076 15.4451 27.8313 15.6687C28.0549 15.8924 28.1667 16.1694 28.1667 16.5V25.8333C28.1667 26.1639 28.0549 26.441 27.8313 26.6646C27.6076 26.8882 27.3306 27 27 27ZM27 37.5C25.5417 37.5 24.1757 37.2229 22.9021 36.6687C21.6285 36.1146 20.5201 35.366 19.5771 34.4229C18.634 33.4799 17.8854 32.3715 17.3313 31.0979C16.7771 29.8243 16.5 28.4583 16.5 27C16.5 25.8139 16.6944 24.6618 17.0833 23.5437C17.4722 22.4257 18.0361 21.4 18.775 20.4667C18.9889 20.1944 19.2611 20.0632 19.5917 20.0729C19.9222 20.0826 20.2139 20.2139 20.4667 20.4667C20.6806 20.6806 20.7778 20.9431 20.7583 21.2542C20.7389 21.5653 20.6319 21.8569 20.4375 22.1292C19.9125 22.8292 19.5139 23.5972 19.2417 24.4333C18.9694 25.2694 18.8333 26.125 18.8333 27C18.8333 29.275 19.6257 31.2049 21.2104 32.7896C22.7951 34.3743 24.725 35.1667 27 35.1667C29.275 35.1667 31.2049 34.3743 32.7896 32.7896C34.3743 31.2049 35.1667 29.275 35.1667 27C35.1667 26.1055 35.0354 25.2354 34.7729 24.3896C34.5104 23.5437 34.0972 22.7708 33.5333 22.0708C33.3389 21.8181 33.2319 21.541 33.2125 21.2396C33.1931 20.9382 33.2903 20.6806 33.5042 20.4667C33.7375 20.2333 34.0194 20.1118 34.35 20.1021C34.6806 20.0924 34.9528 20.2139 35.1667 20.4667C35.925 21.4 36.5035 22.4208 36.9021 23.5292C37.3007 24.6375 37.5 25.7944 37.5 27C37.5 28.4583 37.2229 29.8243 36.6687 31.0979C36.1146 32.3715 35.366 33.4799 34.4229 34.4229C33.4799 35.366 32.3715 36.1146 31.0979 36.6687C29.8243 37.2229 28.4583 37.5 27 37.5Z" fill="#1C1B1F"/>
</g>
<circle cx="27" cy="27" r="26.5" stroke="#2C2C2C"/>
</svg>
